<?xml version="1.0" encoding="UTF-8"?>
<!DOCTYPE svg PUBLIC "-//W3C//DTD SVG 1.1//EN" "http://www.w3.org/Graphics/SVG/1.1/DTD/svg11.dtd">
<svg xmlns="http://www.w3.org/2000/svg" version="1.1" width="512px" height="512px" style="shape-rendering:geometricPrecision; text-rendering:geometricPrecision; image-rendering:optimizeQuality; fill-rule:evenodd; clip-rule:evenodd" xmlns:xlink="http://www.w3.org/1999/xlink">
<g><path style="opacity:0.943" fill="#ffffff" d="M 214.5,-0.5 C 222.5,-0.5 230.5,-0.5 238.5,-0.5C 271.38,6.88227 290.88,27.2156 297,60.5C 297.5,72.8288 297.667,85.1622 297.5,97.5C 316.836,97.3334 336.17,97.5 355.5,98C 370.861,102.028 380.027,111.861 383,127.5C 385.463,149.171 387.963,170.838 390.5,192.5C 390.19,199.642 386.523,202.475 379.5,201C 377.333,200.167 375.833,198.667 375,196.5C 372.26,174.178 369.594,151.844 367,129.5C 365.373,121.87 360.873,116.704 353.5,114C 334.836,113.5 316.17,113.333 297.5,113.5C 297.5,125.5 297.5,137.5 297.5,149.5C 311.263,154.673 317.096,164.673 315,179.5C 310.179,194.961 299.679,201.461 283.5,199C 271.354,195.175 264.687,186.841 263.5,174C 264.118,162.245 269.785,154.078 280.5,149.5C 281.499,137.518 281.832,125.518 281.5,113.5C 259.164,113.667 236.831,113.5 214.5,113C 209.776,110.565 208.276,106.731 210,101.5C 211.167,100.333 212.333,99.1667 213.5,98C 236.164,97.5 258.831,97.3334 281.5,97.5C 281.667,85.8286 281.5,74.1619 281,62.5C 272.674,28.7518 251.174,13.2518 216.5,16C 191.891,21.609 177.058,36.7757 172,61.5C 171.5,73.4954 171.333,85.4954 171.5,97.5C 177.509,97.3338 183.509,97.5005 189.5,98C 194.535,101.013 195.702,105.18 193,110.5C 192.097,111.701 190.931,112.535 189.5,113C 183.509,113.499 177.509,113.666 171.5,113.5C 171.168,125.518 171.501,137.518 172.5,149.5C 187.174,157.009 192.007,168.675 187,184.5C 177.171,200.217 164.004,203.717 147.5,195C 137.234,185.641 134.734,174.474 140,161.5C 143.616,155.371 148.783,151.371 155.5,149.5C 155.5,137.5 155.5,125.5 155.5,113.5C 136.83,113.333 118.164,113.5 99.5,114C 94.1357,116.027 89.969,119.527 87,124.5C 73.2861,238.091 60.1195,351.757 47.5,465.5C 49.2568,483.757 59.2568,493.924 77.5,496C 179.193,496.984 280.859,496.651 382.5,495C 396.346,490.338 404.013,480.671 405.5,466C 403.312,446.974 400.979,427.974 398.5,409C 401.525,399.799 406.691,398.299 414,404.5C 416.755,424.793 419.255,445.126 421.5,465.5C 419.573,489.419 407.24,504.752 384.5,511.5C 279.167,511.5 173.833,511.5 68.5,511.5C 45.2781,505.111 32.9447,489.778 31.5,465.5C 44.0893,349.694 57.5893,234.028 72,118.5C 76.3207,108.913 83.4873,102.413 93.5,99C 114.113,97.5467 134.78,97.0467 155.5,97.5C 155.333,84.4957 155.5,71.4957 156,58.5C 163.014,26.32 182.514,6.65331 214.5,-0.5 Z M 161.5,163.5 C 171.678,164.87 174.845,170.203 171,179.5C 167.95,183.13 164.117,184.297 159.5,183C 153.533,179.608 152.033,174.774 155,168.5C 156.805,166.174 158.972,164.508 161.5,163.5 Z M 288.5,163.5 C 298.827,165.486 301.66,171.153 297,180.5C 289.367,185.598 283.7,183.931 280,175.5C 279.646,169.199 282.479,165.199 288.5,163.5 Z"/></g>
<g><path style="opacity:0.923" fill="#ffffff" d="M 379.5,209.5 C 393.939,208.888 407.939,211.055 421.5,216C 429.036,219.348 430.369,224.348 425.5,231C 423.722,231.704 421.888,232.204 420,232.5C 380.297,217.96 347.964,227.626 323,261.5C 303.47,299.828 309.637,333.328 341.5,362C 369.325,381.03 397.991,382.364 427.5,366C 459.858,342.591 470.025,311.757 458,273.5C 453.623,262.798 447.289,253.465 439,245.5C 437.978,234.59 442.478,231.424 452.5,236C 480.275,266.886 486.442,301.719 471,340.5C 447.211,383.562 411.044,400.062 362.5,390C 324.054,377.213 301.888,350.713 296,310.5C 293.727,271.206 309.227,241.372 342.5,221C 354.3,215.008 366.634,211.175 379.5,209.5 Z"/></g>
<g><path style="opacity:0.924" fill="#582ae4" d="M 383.5,238.5 C 392.95,237.678 396.617,242.011 394.5,251.5C 400.43,252.197 405.597,254.53 410,258.5C 413.162,265.509 410.996,269.842 403.5,271.5C 398.943,268.804 394.11,266.804 389,265.5C 379.559,265.607 374.892,270.274 375,279.5C 375.774,281.939 377.274,283.773 379.5,285C 388.417,289.194 397.417,293.194 406.5,297C 416.612,304.654 420.445,314.821 418,327.5C 414.765,339.735 407.098,347.735 395,351.5C 396.464,362.716 391.964,366.549 381.5,363C 379.177,359.527 378.177,355.694 378.5,351.5C 371.111,350.974 364.444,348.474 358.5,344C 356.066,340.284 355.899,336.451 358,332.5C 359.907,331.07 362.074,330.404 364.5,330.5C 369.933,332.874 375.6,334.707 381.5,336C 398.637,336.507 404.803,328.674 400,312.5C 394.889,309.236 389.389,306.736 383.5,305C 377.178,302.174 371.178,298.841 365.5,295C 355.727,281.266 356.727,268.266 368.5,256C 371.221,253.973 374.221,252.473 377.5,251.5C 378.333,248.5 379.167,245.5 380,242.5C 380.69,240.65 381.856,239.316 383.5,238.5 Z"/></g>
</svg>
