<?xml version="1.0" encoding="UTF-8"?>
<!DOCTYPE svg PUBLIC "-//W3C//DTD SVG 1.1//EN" "http://www.w3.org/Graphics/SVG/1.1/DTD/svg11.dtd">
<svg xmlns="http://www.w3.org/2000/svg" version="1.1" width="512px" height="512px" style="shape-rendering:geometricPrecision; text-rendering:geometricPrecision; image-rendering:optimizeQuality; fill-rule:evenodd; clip-rule:evenodd" xmlns:xlink="http://www.w3.org/1999/xlink">
<g><path style="opacity:0.992" fill="#ffffff" d="M 240.5,-0.5 C 250.5,-0.5 260.5,-0.5 270.5,-0.5C 319.813,8.97739 349.979,38.3107 361,87.5C 362.086,109.143 362.919,130.809 363.5,152.5C 404.355,165.521 429.855,192.854 440,234.5C 449.333,281.167 458.667,327.833 468,374.5C 476.013,418.79 463.846,456.29 431.5,487C 415.306,500.099 396.973,508.266 376.5,511.5C 295.833,511.5 215.167,511.5 134.5,511.5C 74.0356,498.303 43.0356,460.636 41.5,398.5C 41.5343,390.469 42.0343,382.469 43,374.5C 52.3333,327.833 61.6667,281.167 71,234.5C 81.1452,192.854 106.645,165.521 147.5,152.5C 148.068,130.805 148.901,109.138 150,87.5C 161.021,38.3107 191.187,8.97739 240.5,-0.5 Z M 249.5,42.5 C 286.072,42.5243 308.905,60.191 318,95.5C 319.325,113.139 319.825,130.806 319.5,148.5C 276.833,148.5 234.167,148.5 191.5,148.5C 191.175,130.806 191.675,113.139 193,95.5C 200.446,65.55 219.28,47.8834 249.5,42.5 Z M 175.5,191.5 C 232.188,191.042 288.855,191.542 345.5,193C 372.452,199.284 389.618,215.784 397,242.5C 406.462,289.475 415.795,336.475 425,383.5C 430.044,411.199 422.544,434.699 402.5,454C 392.491,461.783 381.158,466.45 368.5,468C 293.167,468.667 217.833,468.667 142.5,468C 113.317,463.484 94.8175,446.984 87,418.5C 85.4462,406.883 85.1128,395.216 86,383.5C 95.4104,335.115 105.077,286.782 115,238.5C 125.3,209.953 145.467,194.287 175.5,191.5 Z"/></g>
<g><path style="opacity:0.99" fill="#582ae4" d="M 208.5,233.5 C 227.317,233.821 236.484,243.487 236,262.5C 241.442,273.804 250.275,277.97 262.5,275C 268.667,272.833 272.833,268.667 275,262.5C 275.455,239.686 286.622,230.852 308.5,236C 313.445,238.946 316.945,243.112 319,248.5C 321.258,280.488 307.758,302.988 278.5,316C 246.507,325.669 220.674,317.169 201,290.5C 192.938,277.584 189.938,263.584 192,248.5C 195.198,240.795 200.698,235.795 208.5,233.5 Z"/></g>
</svg>
