<?xml version="1.0" encoding="UTF-8"?>
<!DOCTYPE svg PUBLIC "-//W3C//DTD SVG 1.1//EN" "http://www.w3.org/Graphics/SVG/1.1/DTD/svg11.dtd">
<svg xmlns="http://www.w3.org/2000/svg" version="1.1" width="512px" height="512px" style="shape-rendering:geometricPrecision; text-rendering:geometricPrecision; image-rendering:optimizeQuality; fill-rule:evenodd; clip-rule:evenodd" xmlns:xlink="http://www.w3.org/1999/xlink">
<g><path style="opacity:0.971" fill="#ffffff" d="M 367.5,101.5 C 356.833,100.167 346.167,100.167 335.5,101.5C 303.5,101.5 271.5,101.5 239.5,101.5C 228.833,100.167 218.167,100.167 207.5,101.5C 151.166,101.667 94.8323,101.5 38.5,101C 25.8397,95.6912 22.673,86.8579 29,74.5C 31.1005,71.5332 33.9338,69.6998 37.5,69C 170.167,68.3333 302.833,68.3333 435.5,69C 464.023,75.1889 480.523,92.6889 485,121.5C 485.667,210.833 485.667,300.167 485,389.5C 480.523,418.311 464.023,435.811 435.5,442C 336.833,442.667 238.167,442.667 139.5,442C 113.962,436.795 97.7956,421.628 91,396.5C 89.5287,347.866 89.0287,299.2 89.5,250.5C 72.1635,250.667 54.8301,250.5 37.5,250C 28.6742,246.523 24.8409,240.023 26,230.5C 27.5,223.667 31.6667,219.5 38.5,218C 62.1667,217.333 85.8333,217.333 109.5,218C 115.925,219.427 120.092,223.26 122,229.5C 122.333,282.167 122.667,334.833 123,387.5C 125.415,398.914 132.248,406.081 143.5,409C 239.5,409.667 335.5,409.667 431.5,409C 442.752,406.081 449.585,398.914 452,387.5C 452.667,299.5 452.667,211.5 452,123.5C 449.585,112.086 442.752,104.919 431.5,102C 410.169,101.5 388.836,101.333 367.5,101.5 Z"/></g>
<g><path style="opacity:0.994" fill="#582ae4" d="M 239.5,101.5 C 239.019,138.228 239.519,174.895 241,211.5C 256.261,220.215 271.761,228.548 287.5,236.5C 303.239,228.548 318.739,220.215 334,211.5C 335.481,174.895 335.981,138.228 335.5,101.5C 346.167,100.167 356.833,100.167 367.5,101.5C 367.667,140.168 367.5,178.835 367,217.5C 364.331,228.351 358.164,236.518 348.5,242C 332.5,250.333 316.5,258.667 300.5,267C 291.833,270.333 283.167,270.333 274.5,267C 258.5,258.667 242.5,250.333 226.5,242C 218.161,237.326 212.328,230.493 209,221.5C 207.523,181.548 207.023,141.548 207.5,101.5C 218.167,100.167 228.833,100.167 239.5,101.5 Z M 239.5,101.5 C 271.5,101.5 303.5,101.5 335.5,101.5C 335.981,138.228 335.481,174.895 334,211.5C 318.739,220.215 303.239,228.548 287.5,236.5C 271.761,228.548 256.261,220.215 241,211.5C 239.519,174.895 239.019,138.228 239.5,101.5 Z"/></g>
<g><path style="opacity:0.993" fill="#582ae4" d="M 57.5,143.5 C 89.8351,143.333 122.168,143.5 154.5,144C 165.09,149.436 167.924,157.603 163,168.5C 160.736,171.433 157.902,173.6 154.5,175C 122.167,175.667 89.8333,175.667 57.5,175C 50.513,172.193 47.1797,167.027 47.5,159.5C 47.3021,151.885 50.6354,146.551 57.5,143.5 Z"/></g>
</svg>
