<?xml version="1.0" encoding="UTF-8"?>
<!DOCTYPE svg PUBLIC "-//W3C//DTD SVG 1.1//EN" "http://www.w3.org/Graphics/SVG/1.1/DTD/svg11.dtd">
<svg xmlns="http://www.w3.org/2000/svg" version="1.1" width="512px" height="512px" style="shape-rendering:geometricPrecision; text-rendering:geometricPrecision; image-rendering:optimizeQuality; fill-rule:evenodd; clip-rule:evenodd" xmlns:xlink="http://www.w3.org/1999/xlink">
<g><path style="opacity:0.98" fill="#ffffff" d="M 142.5,43.5 C 159.928,43.028 177.261,43.528 194.5,45C 196.378,46.5429 197.878,48.3762 199,50.5C 199.5,61.495 199.667,72.495 199.5,83.5C 292.167,83.3333 384.834,83.5 477.5,84C 494.076,88.2431 504.242,98.7431 508,115.5C 508.667,121.167 508.667,126.833 508,132.5C 489.201,189.896 470.201,247.229 451,304.5C 440.891,327.804 423.391,341.97 398.5,347C 324.167,347.333 249.833,347.667 175.5,348C 161.656,351.187 157.49,359.354 163,372.5C 166.264,376.382 170.43,378.549 175.5,379C 228.833,379.333 282.167,379.667 335.5,380C 360.025,386.188 373.358,401.855 375.5,427C 375.202,439.949 368.869,444.282 356.5,440C 354.622,438.457 353.122,436.624 352,434.5C 351.853,420.352 345.353,410.518 332.5,405C 277.194,403.696 221.861,403.029 166.5,403C 150.333,398.833 140.167,388.667 136,372.5C 132.555,349.654 141.388,333.821 162.5,325C 237.456,323.679 312.456,323.012 387.5,323C 405.761,321.736 418.927,312.903 427,296.5C 446.547,239.026 465.381,181.359 483.5,123.5C 482.772,114.271 477.772,109.104 468.5,108C 373.167,107.667 277.833,107.333 182.5,107C 179.667,105.5 177.5,103.333 176,100.5C 175.5,89.505 175.333,78.505 175.5,67.5C 163.732,67.9573 152.065,67.4573 140.5,66C 135.315,61.0528 134.149,55.2194 137,48.5C 138.73,46.5981 140.563,44.9314 142.5,43.5 Z"/></g>
<g><path style="opacity:0.987" fill="#582ae4" d="M 54.5,163.5 C 84.5019,163.333 114.502,163.5 144.5,164C 151.07,167.655 153.237,173.155 151,180.5C 149.5,183.333 147.333,185.5 144.5,187C 114.5,187.667 84.5,187.667 54.5,187C 47.4505,182.513 45.6172,176.346 49,168.5C 50.7297,166.598 52.563,164.931 54.5,163.5 Z"/></g>
<g><path style="opacity:0.919" fill="#582ae4" d="M 12.5,242.5 C 24.1345,242.971 28.9678,248.971 27,260.5C 22.9834,267.138 17.1501,269.304 9.5,267C 3.88803,262.824 2.0547,257.324 4,250.5C 6.09821,246.897 8.93154,244.23 12.5,242.5 Z"/></g>
<g><path style="opacity:0.991" fill="#582ae4" d="M 74.5,243.5 C 117.835,243.333 161.168,243.5 204.5,244C 211.07,247.655 213.237,253.155 211,260.5C 209.5,263.333 207.333,265.5 204.5,267C 161.167,267.667 117.833,267.667 74.5,267C 67.4505,262.513 65.6172,256.346 69,248.5C 70.7297,246.598 72.563,244.931 74.5,243.5 Z"/></g>
<g><path style="opacity:0.951" fill="#ffffff" d="M 166.5,427.5 C 189.329,424.547 205.163,433.547 214,454.5C 219.718,478.897 211.218,496.064 188.5,506C 164.103,511.718 146.936,503.218 137,480.5C 131.424,453.977 141.257,436.31 166.5,427.5 Z M 170.5,452.5 C 187.765,452.257 193.598,460.257 188,476.5C 181.749,483.011 174.582,484.177 166.5,480C 159.989,473.749 158.823,466.582 163,458.5C 165.114,455.879 167.614,453.879 170.5,452.5 Z"/></g>
<g><path style="opacity:0.947" fill="#582ae4" d="M 310.5,435.5 C 322.623,433.449 328.456,438.449 328,450.5C 326.827,454.337 324.827,457.671 322,460.5C 318.759,473.023 323.426,480.69 336,483.5C 346.458,481.033 351.791,474.366 352,463.5C 355.473,455.905 361.306,453.405 369.5,456C 374.432,458.859 376.765,463.193 376.5,469C 371.983,497.505 355.317,510.171 326.5,507C 304.18,499.539 294.014,484.039 296,460.5C 297.781,450.255 302.614,441.922 310.5,435.5 Z"/></g>
</svg>
