<?xml version="1.0" encoding="UTF-8"?>
<!DOCTYPE svg PUBLIC "-//W3C//DTD SVG 1.1//EN" "http://www.w3.org/Graphics/SVG/1.1/DTD/svg11.dtd">
<svg xmlns="http://www.w3.org/2000/svg" version="1.1" width="512px" height="512px" style="shape-rendering:geometricPrecision; text-rendering:geometricPrecision; image-rendering:optimizeQuality; fill-rule:evenodd; clip-rule:evenodd" xmlns:xlink="http://www.w3.org/1999/xlink">
<g><path style="opacity:0.99" fill="#ffffff" d="M 192.5,-0.5 C 234.167,-0.5 275.833,-0.5 317.5,-0.5C 342.402,7.27457 353.902,24.2746 352,50.5C 348.408,59.3611 345.074,68.3611 342,77.5C 341.333,96.5 341.333,115.5 342,134.5C 346.971,160.477 361.805,178.31 386.5,188C 420.706,209.911 440.873,241.078 447,281.5C 455.448,345.094 439.114,401.094 398,449.5C 364.669,484.916 323.836,505.582 275.5,511.5C 262.167,511.5 248.833,511.5 235.5,511.5C 164.975,501.464 113.475,464.797 81,401.5C 63.6498,360.779 58.3165,318.446 65,274.5C 72.6896,237.171 92.5229,208.338 124.5,188C 136.157,182.924 146.324,175.757 155,166.5C 159.667,159.833 164.333,153.167 169,146.5C 169.667,123.5 169.667,100.5 169,77.5C 165.926,68.3611 162.592,59.3611 159,50.5C 157.157,24.831 168.324,7.83101 192.5,-0.5 Z M 203.5,43.5 C 238.331,42.3357 273.331,42.1691 308.5,43C 303.751,51.246 300.584,60.0793 299,69.5C 297.692,81.4611 297.192,93.4611 297.5,105.5C 281.485,105.444 265.485,105.277 249.5,105C 237.361,105.394 225.694,107.894 214.5,112.5C 213.847,98.1489 213.014,83.8155 212,69.5C 210.633,60.2349 207.8,51.5682 203.5,43.5 Z M 247.5,148.5 C 265.187,148.252 282.854,148.586 300.5,149.5C 309.227,184.445 329.894,209.612 362.5,225C 387.084,240.311 400.917,262.477 404,291.5C 410.198,345.248 394.365,391.081 356.5,429C 309.416,468.947 256.75,478.28 198.5,457C 136.952,427.615 106.286,378.615 106.5,310C 104.283,277.944 115.283,251.611 139.5,231C 151.839,223.832 163.839,216.166 175.5,208C 186.568,197.941 195.735,186.441 203,173.5C 214.761,159.54 229.594,151.207 247.5,148.5 Z"/></g>
<g><path style="opacity:0.992" fill="#582ae4" d="M 248.5,191.5 C 265.224,189.01 274.891,196.01 277.5,212.5C 286.173,212.334 294.84,212.5 303.5,213C 318.881,219.115 323.381,229.949 317,245.5C 314.044,250.231 309.877,253.398 304.5,255C 288.167,255.333 271.833,255.667 255.5,256C 237.946,259.277 231.779,269.444 237,286.5C 240.043,291.877 244.543,295.377 250.5,297C 284.512,297.369 307.012,313.536 318,345.5C 324.406,381.356 311.24,407.023 278.5,422.5C 275.451,444.853 263.451,452.02 242.5,444C 236.751,439.591 233.751,433.757 233.5,426.5C 224.827,426.666 216.16,426.5 207.5,426C 193.895,421.3 188.728,411.8 192,397.5C 194.5,391 199,386.5 205.5,384C 222.167,383.667 238.833,383.333 255.5,383C 273.054,379.723 279.221,369.556 274,352.5C 270.957,347.123 266.457,343.623 260.5,342C 226.488,341.631 203.988,325.464 193,293.5C 186.591,257.649 199.758,231.982 232.5,216.5C 232.585,204.633 237.919,196.3 248.5,191.5 Z"/></g>
</svg>
