<svg xmlns="http://www.w3.org/2000/svg" width="512" height="512" viewBox="0 0 512 512" style="overflow: visible;" data-bbox="127.13815146664831 174.85110823003916 260.3505096551095 137.71628865788736"><g transform="matrix(0.4506944417953491, 0, 0, 0.4506944417953491, 176.04029846191406, 130.3540496826172)" stroke="#046bc9" stroke-width="1" data-uid="o_fchl3ecn8_7" data-darkreader-inline-stroke="" style="--darkreader-inline-stroke: #52b5ff;"><svg version="1.1" id="Calque_1" xmlns="http://www.w3.org/2000/svg" x="0px" y="0px" viewBox="0 0 360 360" enable-background="new 0 0 360 360" width="360" height="360" data-uid="o_fchl3ecn8_8"><g data-uid="o_fchl3ecn8_9"><path class="st0" d="M91.52 192.24c0.42 0.06 0.85 0.06 1.27 0.09h23.89c0.42-0.03 0.85-0.03 1.27-0.09
		c0.85-0.12 1.67-0.35 2.45-0.69c4.07-1.77 6.29-6.36 5.43-10.49c-0.7-3.39-3.36-6.19-6.64-7.11c-0.41-0.11-0.83-0.17-1.25-0.26
		c-0.42-0.03-0.85-0.06-1.27-0.09H92.8c-1.13 0.08-1.43 0.04-2.52 0.35c-0.82 0.23-1.61 0.57-2.34 1.02
		c-3.31 2.02-5.08 6.15-4.3 9.9C84.43 188.7 87.73 191.72 91.52 192.24z" fill="rgba(255,4,4,1)" stroke="rgba(255,4,4,1)" stroke-width="1" data-uid="o_fchl3ecn8_10" data-darkreader-inline-fill="" data-darkreader-inline-stroke="" style="--darkreader-inline-fill: #ff1717; --darkreader-inline-stroke: #ff1717;"></path><path class="st0" d="M36.99 117.37c0.42 0.06 0.85 0.06 1.27 0.09h23.89c0.42-0.03 0.85-0.03 1.27-0.09
		c0.85-0.12 1.67-0.35 2.45-0.69c4.07-1.77 6.29-6.36 5.43-10.49c-0.7-3.39-3.36-6.19-6.64-7.11c-0.41-0.11-0.83-0.17-1.25-0.26
		c-0.42-0.03-0.85-0.06-1.27-0.09H38.27c-1.13 0.08-1.43 0.04-2.52 0.35c-0.82 0.23-1.61 0.57-2.34 1.02
		c-3.31 2.02-5.08 6.15-4.3 9.9C29.9 113.83 33.2 116.85 36.99 117.37z" fill="rgba(255,4,4,1)" stroke="rgba(255,4,4,1)" stroke-width="1" data-uid="o_fchl3ecn8_11" data-darkreader-inline-fill="" data-darkreader-inline-stroke="" style="--darkreader-inline-fill: #ff1717; --darkreader-inline-stroke: #ff1717;"></path><path class="st0" d="M57.96 173.96c-0.41-0.11-0.83-0.17-1.25-0.26c-0.42-0.03-0.85-0.06-1.27-0.09H42.52
		c-1.13 0.08-1.43 0.04-2.52 0.35c-0.82 0.23-1.61 0.57-2.34 1.02c-3.31 2.02-5.08 6.15-4.3 9.9c0.79 3.82 4.1 6.85 7.89 7.37
		c0.42 0.06 0.85 0.06 1.27 0.09h12.91c0.42-0.03 0.85-0.03 1.27-0.09c0.85-0.12 1.67-0.35 2.45-0.69
		c4.07-1.77 6.29-6.36 5.43-10.49C63.89 177.67 61.24 174.87 57.96 173.96z" fill="rgba(255,4,4,1)" stroke="rgba(255,4,4,1)" stroke-width="1" data-uid="o_fchl3ecn8_12" data-darkreader-inline-fill="" data-darkreader-inline-stroke="" style="--darkreader-inline-fill: #ff1717; --darkreader-inline-stroke: #ff1717;"></path><path class="st0" d="M104.67 243.37c-0.41-0.11-0.83-0.17-1.25-0.26c-0.42-0.03-0.85-0.06-1.27-0.09H89.23
		c-1.13 0.08-1.43 0.04-2.52 0.35c-0.82 0.23-1.61 0.57-2.34 1.02c-3.31 2.02-5.08 6.15-4.3 9.9c0.79 3.82 4.1 6.85 7.89 7.37
		c0.42 0.06 0.85 0.06 1.27 0.09h12.91c0.42-0.03 0.85-0.03 1.27-0.09c0.85-0.12 1.67-0.35 2.45-0.69
		c4.07-1.77 6.29-6.36 5.43-10.49C110.6 247.08 107.95 244.28 104.67 243.37z" fill="rgba(255,4,4,1)" stroke="rgba(255,4,4,1)" stroke-width="1" data-uid="o_fchl3ecn8_13" data-darkreader-inline-fill="" data-darkreader-inline-stroke="" style="--darkreader-inline-fill: #ff1717; --darkreader-inline-stroke: #ff1717;"></path><path class="st0" d="M331.7 142.96c0-0.08-0.01-0.15-0.01-0.23c-0.01-0.23-0.02-0.46-0.06-0.69c-0.22-1.44-0.87-2.81-1.87-3.88
		c-0.51-0.55-0.77-0.74-1.23-1.04c-0.11-0.08-0.22-0.15-0.33-0.22c-0.04-0.03-0.09-0.06-0.14-0.09L263.8 99.7
		c-0.33-0.16-0.64-0.34-0.98-0.47c-0.91-0.36-1.17-0.34-2.12-0.48c-0.33 0-0.66 0-0.98 0.02c-0.08-0.01-0.17-0.01-0.25-0.02H102.14
		c-1.13 0.08-1.43 0.04-2.52 0.35c-0.82 0.23-1.61 0.57-2.34 1.02c-3.31 2.02-5.08 6.15-4.3 9.9c0.79 3.82 4.1 6.85 7.89 7.37
		c0.42 0.06 0.85 0.06 1.27 0.09h43.46c0.43 0.04 1.13 0.11 1.56 0.15c0.32 0.06 0.64 0.11 0.95 0.2c3.28 0.92 5.93 3.72 6.64 7.11
		c0.86 4.13-1.37 8.72-5.43 10.49c-0.78 0.34-1.61 0.57-2.45 0.69c-0.42 0.06-0.85 0.06-1.27 0.09H38.27
		c-1.13 0.08-1.43 0.04-2.52 0.35c-0.82 0.23-1.61 0.57-2.34 1.02c-3.31 2.02-5.08 6.15-4.3 9.9c0.79 3.82 4.1 6.85 7.89 7.37
		c0.42 0.06 0.85 0.06 1.27 0.09h129.21c0.43 0.04 1.13 0.11 1.56 0.15c0.32 0.06 0.64 0.11 0.95 0.2c3.28 0.92 5.93 3.72 6.64 7.11
		c0.86 4.13-1.37 8.72-5.43 10.49c-0.78 0.34-1.61 0.57-2.45 0.69c-0.42 0.06-0.85 0.06-1.27 0.09h-19.2
		c-1.13 0.08-1.43 0.04-2.52 0.35c-0.82 0.23-1.61 0.57-2.34 1.02c-3.31 2.02-5.08 6.15-4.3 9.9c0.79 3.82 4.1 6.85 7.89 7.37
		c0.42 0.06 0.85 0.06 1.27 0.09h47.37c4.16 0 7.53-3.37 7.53-7.53v-26.57c0-1.09 1.18-1.77 2.12-1.23l33.16 19.14
		c8.9 5.14 14.39 14.64 14.39 24.92v16.75c0 10.66-11.54 17.33-20.78 12l-27.22-15.75c-0.93-0.54-1.61-1.43-1.83-2.48
		c-0.7-3.43-3.74-5.98-7.38-5.98H77.22c-1.13 0.08-1.43 0.04-2.52 0.35c-0.82 0.23-1.61 0.57-2.34 1.02
		c-3.31 2.02-5.08 6.15-4.3 9.9c0.79 3.82 4.1 6.85 7.89 7.37c0.42 0.06 0.85 0.06 1.27 0.09h79.89c0.43 0.04 1.13 0.1 1.56 0.15
		c0.32 0.06 0.64 0.11 0.95 0.2c3.28 0.92 5.93 3.72 6.64 7.11c0.86 4.13-1.37 8.72-5.43 10.49c-0.78 0.34-1.61 0.57-2.45 0.69
		c-0.42 0.06-0.85 0.06-1.27 0.09h-23.57c-1.13 0.08-1.43 0.04-2.52 0.35c-0.82 0.23-1.61 0.57-2.34 1.02
		c-3.31 2.02-5.08 6.15-4.3 9.9c0.79 3.82 4.1 6.85 7.89 7.37c0.42 0.06 0.85 0.06 1.27 0.09h126.16c0.05 0 0.1-0.01 0.15-0.01
		c0.11 0 0.22 0.01 0.34 0.01c0.17 0 0.35-0.01 0.52-0.02c0.19-0.01 0.39-0.04 0.58-0.07c0.53-0.08 1.05-0.22 1.55-0.42
		c0.18-0.07 0.35-0.16 0.53-0.24c0.02-0.01 0.05-0.02 0.07-0.03c0.56-0.25 1.09-0.55 1.58-0.89l63.07-36.41
		c0.3-0.21 0.62-0.39 0.9-0.61c1.14-0.91 1.99-2.16 2.42-3.55c0.29-0.93 0.25-1.19 0.32-2.15v-74.21
		C331.71 143.07 331.71 143.01 331.7 142.96z M262.63 115.88l45.29 26.15c0.84 0.49 0.84 1.7 0 2.19l-8.89 5.13
		c-1.52 0.88-3.4 0.88-4.92 0l-45.08-26.03c-0.95-0.55-0.95-1.92 0-2.47l8.62-4.98C259.2 114.99 261.09 114.99 262.63 115.88z
		 M257.69 170.38l-45.08-26.03c-0.95-0.55-0.95-1.92 0-2.47l8.62-4.98c1.54-0.89 3.43-0.89 4.97 0l45.29 26.15
		c0.84 0.49 0.84 1.7 0 2.19l-8.89 5.13C261.08 171.26 259.21 171.26 257.69 170.38z M317.12 211.18c0 1.2-0.64 2.31-1.68 2.91
		l-42.95 24.8c-2.24 1.29-5.04-0.32-5.04-2.91v-49.59c0-1.2 0.64-2.31 1.68-2.91l11.57-6.68c0.01 8.6 0.02 20.86 0.02 27
		c0 1.71 1.85 2.77 3.33 1.93l18.03-10.27c1.11-0.63 1.8-1.82 1.8-3.1v-28.94l8.2-4.73c2.24-1.29 5.04 0.32 5.04 2.91V211.18z" fill="rgba(201,4,4,1)" stroke="rgba(201,4,4,1)" stroke-width="1" data-uid="o_fchl3ecn8_14" data-darkreader-inline-fill="" data-darkreader-inline-stroke="" style="--darkreader-inline-fill: #a30000; --darkreader-inline-stroke: #ff3d3d;"></path></g></svg></g><path text="QuickCart" fill="#ffffff" space="preserve" text-anchor="middle" offset="0.5" font-scale="contain" font-size="48" font-family="Open Sans" transform="matrix(1.2484917640686035, 0, 0, 1.2484917640686035, 254.94625854492188, 302.37969970703125)" data-fl-textpath="" font-weight="700" font-style="italic" letter-spacing="-2" data-uid="o_fchl3ecn8_15" d="M-71.69-21.98L-71.69-21.98Q-71.69-14.58 -74.56-8.96Q-77.43-3.35 -82.4-1.05L-82.4-1.05L-76.45 8.16L-84.86 8.16L-89.03 0.47L-89.64 0.47Q-95.64 0.47 -99-2.99Q-102.37-6.45 -102.37-12.59L-102.37-12.59Q-102.37-18.8 -100.05-24.01Q-97.73-29.23 -93.65-32.02Q-89.57-34.8 -84.23-34.8L-84.23-34.8Q-78.25-34.8 -74.97-31.43Q-71.69-28.05 -71.69-21.98ZM-84.81-28.76L-84.81-28.76Q-87.65-28.76 -90.02-26.61Q-92.38-24.47 -93.73-20.72Q-95.08-16.97 -95.08-12.59L-95.08-12.59Q-95.08-9.14 -93.52-7.38Q-91.96-5.63 -89.12-5.63L-89.12-5.63Q-86.29-5.63 -83.96-7.66Q-81.62-9.7 -80.31-13.43Q-79-17.16 -79-21.8L-79-21.8Q-79-25.13 -80.52-26.94Q-82.05-28.76 -84.81-28.76ZM-69.051-12.05L-66.071-26.2L-59.011-26.2L-62.231-10.9Q-62.601-9.3 -62.601-8.11L-62.601-8.11Q-62.601-5.23 -60.071-5.23L-60.071-5.23Q-57.911-5.23 -56.161-7.9Q-54.401-10.57 -53.391-15.35L-53.391-15.35L-51.091-26.2L-44.041-26.2L-49.591 0L-54.981 0L-54.491-4.85L-54.631-4.85Q-58.031 0.47 -62.951 0.47L-62.951 0.47Q-66.191 0.47 -67.901-1.46Q-69.611-3.4 -69.611-7.05L-69.611-7.05Q-69.611-9.23 -69.051-12.05L-69.051-12.05ZM-37.669-32.34L-37.669-32.34Q-37.669-34.38 -36.559-35.43Q-35.449-36.47 -33.409-36.47L-33.409-36.47Q-31.699-36.47 -30.809-35.74Q-29.919-35.02 -29.919-33.66L-29.919-33.66Q-29.919-31.78 -30.949-30.62Q-31.979-29.46 -34.129-29.46L-34.129-29.46Q-37.669-29.46 -37.669-32.34ZM-31.739-26.2L-37.299 0L-44.349 0L-38.799-26.2L-31.739-26.2ZM-21.109 0.47L-21.109 0.47Q-25.819 0.47 -28.339-2.05Q-30.859-4.57 -30.859-9.16L-30.859-9.16Q-30.859-14.13 -29.109-18.2Q-27.369-22.27 -24.199-24.48Q-21.039-26.7 -16.989-26.7L-16.989-26.7Q-12.719-26.7 -9.299-25.01L-9.299-25.01L-11.449-19.64Q-12.719-20.18 -13.939-20.58Q-15.159-20.98 -16.699-20.98L-16.699-20.98Q-18.699-20.98 -20.299-19.48Q-21.909-17.98 -22.809-15.36Q-23.709-12.75 -23.709-9.75L-23.709-9.75Q-23.709-7.5 -22.649-6.36Q-21.579-5.23 -19.679-5.23L-19.679-5.23Q-17.899-5.23 -16.379-5.78Q-14.849-6.33 -13.239-7.15L-13.239-7.15L-13.239-1.38Q-16.799 0.47 -21.109 0.47ZM-0.839-15.07L 9.771-26.2L 17.841-26.2L 6.161-14.39L 12.841 0L 4.971 0L 0.681-9.84L-2.129-8.16L-3.869 0L-10.919 0L-3.189-36.47L 3.871-36.47L 0.401-20.2Q 0.211-19.24 -0.279-17.46L-0.279-17.46L-0.939-15.07L-0.839-15.07ZM 34.679-28.76L 34.679-28.76Q 31.589-28.76  29.109-26.86Q 26.639-24.96  25.139-21.27Q 23.639-17.58  23.639-13.34L 23.639-13.34Q 23.639-9.42  25.249-7.52Q 26.849-5.63  30.369-5.63L 30.369-5.63Q 33.789-5.63  38.289-7.43L 38.289-7.43L 38.289-1.34Q 33.629 0.47  28.919 0.47L 28.919 0.47Q 22.959 0.47  19.659-3.04Q 16.349-6.54  16.349-12.96L 16.349-12.96Q 16.349-19.1  18.789-24.27Q 21.229-29.44  25.309-32.12Q 29.379-34.8  34.679-34.8L 34.679-34.8Q 37.609-34.8  39.879-34.28Q 42.159-33.75  44.759-32.34L 44.759-32.34L 41.989-26.48Q 39.509-27.87  37.889-28.31Q 36.269-28.76  34.679-28.76ZM 50.356 0.47L 50.356 0.47Q 46.906 0.47  44.926-2.03Q 42.946-4.52  42.946-9.02L 42.946-9.02Q 42.946-13.66  44.636-17.87Q 46.316-22.08  49.066-24.39Q 51.806-26.7  55.086-26.7L 55.086-26.7Q 57.356-26.7  59.016-25.71Q 60.666-24.73  61.576-22.85L 61.576-22.85L 61.766-22.85L 63.106-26.2L 68.536-26.2L 62.966 0L 57.596 0L 57.926-3.4L 57.826-3.4Q 54.686 0.47  50.356 0.47ZM 53.116-5.23L 53.116-5.23Q 54.736-5.23  56.236-6.8Q 57.736-8.37  58.646-11.05Q 59.566-13.73  59.566-17.13L 59.566-17.13Q 59.566-18.8  58.656-19.89Q 57.756-20.98  56.286-20.98L 56.286-20.98Q 54.686-20.98  53.246-19.29Q 51.806-17.6  50.946-14.84Q 50.096-12.07  50.096-9.35L 50.096-9.35Q 50.096-7.29  50.876-6.26Q 51.666-5.23  53.116-5.23ZM 87.089-26.7L 87.089-26.7Q 88.479-26.7  89.339-26.44L 89.339-26.44L 87.799-19.64Q 86.739-20.02  85.449-20.02L 85.449-20.02Q 82.739-20.02  80.679-17.87Q 78.629-15.73  77.769-11.72L 77.769-11.72L 75.279 0L 68.229 0L 73.779-26.2L 79.169-26.2L 78.679-21.35L 78.819-21.35Q 82.269-26.7  87.089-26.7ZM 97.612-5.23L 97.612-5.23Q 99.132-5.23  101.403-6.05L 101.403-6.05L 101.403-0.77Q 98.802 0.47  95.172 0.47L 95.172 0.47Q 91.653 0.47  90.002-1.01Q 88.353-2.48  88.353-5.58L 88.353-5.58Q 88.353-6.75  88.632-8.2L 88.632-8.2L 91.332-20.84L 87.763-20.84L 88.442-24.28L 93.043-26.25L 96.132-31.78L 100.683-31.78L 99.532-26.2L 106.162-26.2L 104.993-20.84L 98.382-20.84L 95.692-8.2Q 95.543-7.5  95.543-6.96L 95.543-6.96Q 95.543-5.23  97.612-5.23Z" data-darkreader-inline-fill="" style="--darkreader-inline-fill: #131516;"></path></svg>